<svg xmlns="http://www.w3.org/2000/svg" width="48" height="13" fill="none"><path fill="#6C7289" d="M7.54 8.517c0 .685-.26 1.265-.78 1.742-.511.477-1.257.754-2.236.832v1.469h-.832v-1.469a6.555 6.555 0 0 1-1.807-.351c-.563-.208-1.014-.468-1.352-.78l.481-1.014c.312.286.706.524 1.183.715.477.182.975.29 1.495.325V6.97a9.935 9.935 0 0 1-1.521-.481 2.673 2.673 0 0 1-1.014-.767c-.269-.338-.403-.78-.403-1.326 0-.685.247-1.265.741-1.742.503-.477 1.235-.754 2.197-.832V.34h.832v1.469c.494.017.97.095 1.43.234a4.21 4.21 0 0 1 1.209.559l-.429 1.04c-.702-.442-1.439-.685-2.21-.728v3.029c.633.156 1.153.32 1.56.494.407.165.75.416 1.027.754.286.33.429.771.429 1.326ZM2.028 4.344c0 .373.143.663.429.871.286.208.698.381 1.235.52V2.927c-.555.07-.97.234-1.248.494a1.198 1.198 0 0 0-.416.923Zm2.496 5.629c.58-.052 1.014-.2 1.3-.442.295-.251.442-.563.442-.936 0-.381-.152-.672-.455-.871-.295-.208-.724-.39-1.287-.546v2.795ZM11.392 1.9V11h-1.287V3.031H8.051V1.9h3.341Zm5.917 3.575c.598 0 1.13.113 1.599.338.476.225.85.55 1.118.975.268.416.403.897.403 1.443 0 .572-.143 1.075-.43 1.508a2.81 2.81 0 0 1-1.156 1.014 3.723 3.723 0 0 1-1.638.351c-1.222 0-2.167-.394-2.834-1.183-.659-.789-.988-1.907-.988-3.354 0-1.014.178-1.876.533-2.587.364-.72.867-1.261 1.508-1.625.65-.373 1.404-.559 2.262-.559.442 0 .858.048 1.248.143.39.087.728.217 1.014.39l-.494 1.014c-.434-.286-1.014-.429-1.742-.429-.945 0-1.686.295-2.223.884-.538.58-.806 1.43-.806 2.548 0 .139.004.247.013.325a2.43 2.43 0 0 1 1.066-.884c.46-.208.975-.312 1.547-.312Zm-.156 4.576c.598 0 1.083-.16 1.456-.481.372-.32.559-.75.559-1.287 0-.537-.19-.962-.572-1.274-.373-.32-.875-.481-1.508-.481-.408 0-.771.078-1.092.234a1.901 1.901 0 0 0-.741.637 1.62 1.62 0 0 0-.26.897c0 .32.082.615.247.884.173.26.42.472.74.637.33.156.72.234 1.17.234Zm7.204-8.255c1.222 0 2.163.394 2.821 1.183.668.789 1.001 1.907 1.001 3.354 0 1.014-.182 1.88-.546 2.6-.355.71-.858 1.252-1.508 1.625-.641.364-1.39.546-2.249.546-.442 0-.858-.043-1.248-.13a3.592 3.592 0 0 1-1.014-.403l.494-1.014c.442.286 1.027.429 1.755.429.945 0 1.682-.29 2.21-.871.538-.59.806-1.443.806-2.561v-.325c-.26.39-.62.689-1.079.897-.46.2-.975.299-1.547.299a3.727 3.727 0 0 1-1.612-.338 2.656 2.656 0 0 1-1.105-.962c-.26-.425-.39-.91-.39-1.456 0-.572.139-1.075.416-1.508A2.828 2.828 0 0 1 22.72 2.16a3.612 3.612 0 0 1 1.638-.364Zm.117 4.576c.408 0 .772-.078 1.092-.234.32-.156.568-.368.741-.637.182-.269.273-.568.273-.897 0-.32-.086-.611-.26-.871a1.684 1.684 0 0 0-.74-.637c-.321-.165-.711-.247-1.17-.247-.599 0-1.084.16-1.457.481-.364.32-.546.75-.546 1.287 0 .537.187.966.56 1.287.372.312.875.468 1.507.468Zm5.661 4.706a.874.874 0 0 1-.624-.247.882.882 0 0 1-.26-.65c0-.251.087-.46.26-.624a.851.851 0 0 1 .624-.26.83.83 0 0 1 .611.247.862.862 0 0 1 .247.637c0 .26-.086.477-.26.65a.814.814 0 0 1-.598.247Zm5.039-9.282c1.222 0 2.162.394 2.82 1.183.668.789 1.002 1.907 1.002 3.354 0 1.014-.182 1.88-.546 2.6-.356.71-.858 1.252-1.508 1.625-.642.364-1.391.546-2.25.546-.441 0-.857-.043-1.247-.13a3.592 3.592 0 0 1-1.014-.403l.494-1.014c.442.286 1.027.429 1.755.429.944 0 1.681-.29 2.21-.871.537-.59.806-1.443.806-2.561v-.325c-.26.39-.62.689-1.08.897-.459.2-.974.299-1.546.299a3.727 3.727 0 0 1-1.612-.338 2.656 2.656 0 0 1-1.105-.962c-.26-.425-.39-.91-.39-1.456 0-.572.138-1.075.416-1.508a2.828 2.828 0 0 1 1.157-1.001 3.612 3.612 0 0 1 1.638-.364Zm.117 4.576c.407 0 .771-.078 1.092-.234.32-.156.567-.368.74-.637.183-.269.274-.568.274-.897 0-.32-.087-.611-.26-.871a1.684 1.684 0 0 0-.741-.637c-.321-.165-.711-.247-1.17-.247-.598 0-1.084.16-1.456.481-.364.32-.546.75-.546 1.287 0 .537.186.966.559 1.287.372.312.875.468 1.508.468Zm7.906-4.576c1.222 0 2.162.394 2.821 1.183.667.789 1.001 1.907 1.001 3.354 0 1.014-.182 1.88-.546 2.6-.355.71-.858 1.252-1.508 1.625-.641.364-1.39.546-2.249.546-.442 0-.858-.043-1.248-.13a3.592 3.592 0 0 1-1.014-.403l.494-1.014c.442.286 1.027.429 1.755.429.945 0 1.681-.29 2.21-.871.537-.59.806-1.443.806-2.561v-.325c-.26.39-.62.689-1.079.897-.46.2-.975.299-1.547.299a3.726 3.726 0 0 1-1.612-.338 2.655 2.655 0 0 1-1.105-.962c-.26-.425-.39-.91-.39-1.456 0-.572.139-1.075.416-1.508A2.827 2.827 0 0 1 41.56 2.16a3.612 3.612 0 0 1 1.638-.364Zm.117 4.576c.407 0 .771-.078 1.092-.234.32-.156.568-.368.741-.637.182-.269.273-.568.273-.897 0-.32-.087-.611-.26-.871a1.685 1.685 0 0 0-.74-.637c-.322-.165-.712-.247-1.17-.247-.599 0-1.084.16-1.457.481-.364.32-.546.75-.546 1.287 0 .537.186.966.56 1.287.372.312.874.468 1.507.468Z"/><path fill="#6C7289" d="M0 6.866h47.643v.65H0v-.65Z"/></svg>