<svg xmlns="http://www.w3.org/2000/svg" width="15" height="16" fill="none"><path fill="#fff" fill-rule="evenodd" d="M12.865 8.166a2.397 2.397 0 0 1 1.518 2.222 2.397 2.397 0 0 1-1.119 2.021 2.397 2.397 0 1 1-4.33.376H7.047a2.397 2.397 0 1 1-4.507 0h-.943a.8.8 0 0 1 0-1.598h10.388a.8.8 0 1 0 0-1.598H3.764a.8.8 0 0 1-.8-.592L.984 1.598H0V0h1.598a.8.8 0 0 1 .775.591l.264 1.007h10.947a.8.8 0 0 1 .631.28.799.799 0 0 1 .144.695l-1.494 5.593Zm-8.47-.175h6.864l1.286-4.795H3.068l1.327 4.795Zm.4 6.392a.8.8 0 1 1 0-1.598.8.8 0 0 1 0 1.598Zm5.593-.799a.8.8 0 1 0 1.598 0 .8.8 0 0 0-1.598 0Z" clip-rule="evenodd"/></svg>